<?xml version="1.0" standalone="no"?><!DOCTYPE svg PUBLIC "-//W3C//DTD SVG 1.1//EN" "http://www.w3.org/Graphics/SVG/1.1/DTD/svg11.dtd"><svg class="icon" height="512" viewBox="0 0 1024 1024" version="1.1" xmlns="http://www.w3.org/2000/svg"><path d="M757.333333 717.866667V145.066667c0-18.133333-13.866667-32-32-32H136.533333c-18.133333 0-32 13.866667-32 32v572.8c0 18.133333 13.866667 32 32 32H725.333333c18.133333 0 32-13.866667 32-32z m-42.666666-341.333334v83.2h-105.6v-83.2H714.666667z m-148.266667 83.2H448v-83.2h118.4v83.2z m-161.066667 0H288v-83.2h117.333333v83.2z m-160 0h-98.133333v-83.2H245.333333v83.2z m0 42.666667v83.2h-98.133333v-83.2H245.333333z m42.666667 0h117.333333v83.2H288v-83.2z m117.333333 125.866667v78.933333H288v-78.933333h117.333333z m42.666667 0h118.4v78.933333H448v-78.933333z m0-42.666667v-83.2h118.4v83.2H448z m161.066667-83.2H714.666667v83.2h-105.6v-83.2zM714.666667 155.733333v177.066667H147.2V155.733333H714.666667zM147.2 628.266667H245.333333v78.933333h-98.133333v-78.933333z m461.866667 78.933333v-78.933333H714.666667v78.933333h-105.6zM837.333333 792.533333V238.933333c0-11.733333-9.6-21.333333-21.333333-21.333333s-21.333333 9.6-21.333333 21.333333v553.6H203.733333c-11.733333 0-21.333333 9.6-21.333333 21.333334s9.6 21.333333 21.333333 21.333333h590.933334c23.466667-1.066667 42.666667-19.2 42.666666-42.666667zM893.866667 294.4c-11.733333 0-21.333333 9.6-21.333334 21.333333v553.6H281.6c-11.733333 0-21.333333 9.6-21.333333 21.333334s9.6 21.333333 21.333333 21.333333h590.933333c23.466667 0 42.666667-19.2 42.666667-42.666667V315.733333c0-11.733333-9.6-21.333333-21.333333-21.333333z" /></svg>