<?xml version="1.0" standalone="no"?><!DOCTYPE svg PUBLIC "-//W3C//DTD SVG 1.1//EN" "http://www.w3.org/Graphics/SVG/1.1/DTD/svg11.dtd"><svg class="icon" height="512" viewBox="0 0 1024 1024" version="1.1" xmlns="http://www.w3.org/2000/svg"><path d="M497.50658 408.414509 479.663799 444.551148 439.792671 450.338649 468.649625 478.473676 461.833101 518.182698 497.50658 499.432726 533.163948 518.177664 526.3585 478.473676 555.21042 450.338649 515.338284 444.551148ZM497.518662 318.182659c-79.991961 0-145.067111 65.069109-145.067111 145.055029s65.075151 145.055029 145.067111 145.055029c79.968803 0 145.031871-65.069109 145.031871-145.055029S577.487465 318.182659 497.518662 318.182659zM551.799137 486.741103l12.806406 74.731054-67.098964-35.280798-67.127156 35.274757 12.818489-74.725013-54.285509-52.950397 75.025061-10.887308 33.569116-67.989038 33.55804 67.989038 75.025061 10.887308L551.799137 486.741103zM574.94914 701.618685c-3.330733 1.081381-6.845723 1.630126-10.442271 1.630126-10.852067 0-20.062933-4.925618-27.469485-8.886653-0.913233-0.491354-2.006696-1.075339-3.088077-1.636167-0.781333 0.792408-1.555617 1.601934-2.203036 2.283586-7.20417 7.493142-18.091478 18.825488-34.239693 18.825488-16.160297 0-27.05264-11.332345-34.262851-18.831529-0.647419-0.681652-1.421703-1.485136-2.203036-2.277545-1.075339 0.554787-2.167796 1.138772-3.082035 1.630126-7.40051 3.960028-16.61641 8.891688-27.475526 8.891688-3.596547 0-7.111538-0.543711-10.425154-1.625092-9.433385-3.055857-15.641758-9.586429-20.08005-16.334486l0 89.011521 97.528652-48.012696 97.505494 48.012696 0-89.015549C590.574788 692.036283 584.370442 698.567862 574.94914 701.618685zM504.364385 16.445242c-277.49395 0-503.252799 225.757841-503.252799 503.252799 0 277.49395 225.758848 503.252799 503.252799 503.252799s503.252799-225.758848 503.252799-503.252799C1007.617184 242.203083 781.858336 16.445242 504.364385 16.445242zM728.625008 502.774534c5.140082 9.609587 12.182146 22.769406 7.262568 37.928872-4.972941 15.298415-19.074185 22.115946-28.406883 26.631767-0.878999 0.421879-1.931181 0.93035-2.954163 1.444861 0.190299 1.173006 0.404763 2.370177 0.583986 3.371008 1.803308 10.153298 4.520856 25.50407-4.880309 38.415191-9.429357 12.957437-24.901961 15.084958-35.14185 16.495586-0.982707 0.138948-2.161754 0.300048-3.307575 0.47323-0.173182 1.144814-0.335288 2.312785-0.474237 3.290458-1.404587 10.239889-3.533114 25.717527-16.489544 35.147891-6.122789 4.452388-13.610897 6.712816-22.248853 6.712816-1.307927 0-2.598737-0.055378-3.873437-0.142976l0 139.815267-121.188133-59.669254-121.211291 59.669254L376.295289 672.543239c-1.271679 0.086591-2.558462 0.142976-3.862361 0.142976-8.643997 0-16.131098-2.254387-22.272011-6.718858-12.94032-9.429357-15.072875-24.901961-16.478469-35.135809-0.138948-0.982707-0.301055-2.15672-0.474237-3.307575-1.150855-0.173182-2.324868-0.335288-3.307575-0.468196-10.233848-1.410628-25.712493-3.533114-35.153932-16.495586-9.407206-12.927231-6.671535-28.285051-4.868227-38.443384 0.179223-0.99479 0.39268-2.173837 0.577945-3.335767-1.023989-0.514512-2.070129-1.022982-2.949128-1.444861-9.337732-4.515821-23.451058-11.338387-28.411917-26.648884-4.914543-15.148391 2.127521-28.313243 7.273644-37.923838 0.486319-0.913233 1.070305-2.000655 1.625092-3.075994-0.786367-0.76925-1.589851-1.544542-2.266469-2.190954-7.504218-7.210211-18.842604-18.091478-18.842604-34.257816 0-16.154256 11.338387-27.047605 18.83757-34.256809 0.681652-0.65346 1.485136-1.421703 2.271503-2.196995-0.554787-1.075339-1.138772-2.161754-1.625092-3.075994-5.151158-9.614622-12.199262-22.791557-7.273644-37.923838 4.960859-15.298415 19.068144-22.133062 28.400841-26.648884 0.878999-0.427921 1.919098-0.93035 2.948122-1.444861-0.190299-1.167972-0.404763-2.359101-0.577945-3.353891-1.804315-10.153298-4.532938-25.50407 4.891385-38.4605 9.435398-12.922197 24.89592-15.050724 35.130774-16.461352 0.982707-0.132907 2.150679-0.295014 3.306568-0.474237 0.173182-1.150855 0.335288-2.323861 0.474237-3.312609 1.404587-10.239889 3.539155-25.706452 16.513709-35.166015 6.116748-4.440306 13.598815-6.694693 22.23677-6.694693 5.793542 0 11.304153 0.982707 16.166338 1.84459 1.064264 0.190299 2.232235 0.398721 3.353891 0.577945 0.514512-1.016941 1.017948-2.058047 1.445868-2.937046 4.515821-9.331691 11.343421-23.438976 26.647877-28.417958 3.335767-1.081381 6.851765-1.636167 10.448312-1.636167 10.86415 0 20.086091 4.937701 27.486601 8.90377 0.913233 0.485312 2.000655 1.069298 3.075994 1.625092 0.775292-0.786367 1.543535-1.589851 2.196995-2.266469 7.20417-7.505225 18.096512-18.842604 34.262851-18.842604 16.14318 0 27.035523 11.332345 34.239693 18.825488 0.65346 0.682659 1.433786 1.492184 2.208071 2.284593 1.070305-0.555793 2.15672-1.132731 3.064919-1.61905 7.412592-3.971104 16.628493-8.909811 27.498684-8.909811 3.596547 0 7.111538 0.554787 10.453346 1.636167 15.298415 4.984017 22.12098 19.086268 26.63076 28.417958 0.427921 0.878999 0.936391 1.925139 1.445868 2.949128 1.127697-0.185264 2.295668-0.39268 3.364967-0.583986 4.857151-0.861883 10.372796-1.838548 16.154256-1.84459 8.650038 0 16.14318 2.266469 22.283086 6.735974 12.928238 9.436405 15.0618 24.890885 16.467393 35.124733 0.138948 0.983714 0.300048 2.15672 0.47323 3.307575 1.150855 0.179223 2.324868 0.335288 3.307575 0.474237 10.24593 1.410628 25.717527 3.539155 35.130774 16.478469 9.424323 12.928238 6.695699 28.285051 4.891385 38.449425-0.173182 0.993783-0.387646 2.184912-0.578951 3.353891 1.017948 0.50847 2.059053 1.011906 2.937046 1.433786 9.331691 4.514814 23.428907 11.343421 28.400841 26.624719 4.937701 15.160473-2.104363 28.325326-7.250486 37.940954-0.491354 0.913233-1.075339 2.006696-1.630126 3.082035 0.786367 0.775292 1.595892 1.549576 2.278552 2.203036 7.499183 7.210211 18.836563 18.102553 18.836563 34.256809 0 16.166338-11.338387 27.047605-18.842604 34.257816-0.676618 0.65346-1.486143 1.421703-2.27251 2.196995C727.55571 500.767838 728.139696 501.861301 728.625008 502.774534zM701.699234 430.88286c-1.781157-11.361545 15.148391-27.104997 11.667634-37.789924-3.539155-10.875226-26.503894-13.668289-31.626859-23.705797-5.180357-10.164374 6.025123-30.389414-0.647419-39.547922-6.683617-9.187708-29.406707-4.752436-37.420402-12.772173-8.025777-8.031819-3.584465-30.719668-12.778214-37.426443-2.220153-1.61905-5.099807-2.185919-8.325825-2.185919-7.40051 0.006041-16.639568 2.960204-24.075319 2.960204-2.66519 0-5.099807-0.381605-7.134696-1.416669-10.04959-5.122965-12.835606-28.099787-23.717879-31.644983-0.999824-0.323206-2.046971-0.47323-3.12231-0.47323-9.89856 0-22.849955 12.280819-32.916663 12.280819-0.583986 0-1.16193-0.041282-1.728799-0.126866-11.066531-1.734841-20.837218-22.734165-32.36691-22.734165-11.551844 0-21.311455 20.999324-32.36691 22.734165-0.566869 0.086591-1.144814 0.126866-1.734841 0.126866-10.083824 0-23.029179-12.280819-32.921697-12.280819-1.075339 0-2.12148 0.150024-3.12231 0.47323-10.892342 3.54419-13.679364 26.509935-23.728955 31.644983-2.028847 1.035065-4.457423 1.416669-7.12362 1.416669-7.429709 0-16.68085-2.965238-24.087401-2.965238-3.226018 0-6.105672 0.566869-8.325825 2.178871-9.192742 6.701741-4.752436 29.406707-12.778214 37.437518-8.013695 8.019736-30.724702 3.584465-37.432484 12.772173-6.660459 9.158509 4.545021 29.383548-0.636343 39.53584-5.134041 10.04959-28.099787 12.846681-31.626859 23.717879-3.480757 10.684927 13.448791 26.428379 11.679716 37.789924-1.734841 11.043373-22.734165 20.820101-22.734165 32.354828 0 11.546809 21.000331 21.294338 22.734165 32.355835 1.769074 11.349462-15.148391 27.093921-11.679716 37.783882 3.527073 10.875226 26.503894 13.651172 31.650018 23.717879 5.169281 10.147257-6.036198 30.377331 0.624261 39.53584 6.694693 9.187708 29.406707 4.747402 37.431477 12.761097 8.025777 8.025777 3.584465 30.736785 12.778214 37.431477 2.220153 1.613009 5.099807 2.179878 8.325825 2.179878 7.412592 0 16.663733-2.97128 24.098477-2.97128 2.659149 0 5.087725 0.381605 7.111538 1.416669 10.048584 5.140082 12.835606 28.122945 23.716872 31.650018 0.99479 0.324213 2.04093 0.468196 3.12231 0.468196 9.886477 0 22.837873-12.268737 32.910621-12.268737 0.590027 0 1.173006 0.040275 1.745916 0.132907 11.055456 1.728799 20.81406 22.72309 32.36691 22.72309 11.529692 0 21.288297-20.99429 32.343752-22.72309 0.57291-0.092632 1.155889-0.132907 1.745916-0.132907 10.071742 0 23.03522 12.268737 32.910621 12.268737 1.075339 0 2.116445-0.143983 3.110228-0.468196 10.892342-3.527073 13.679364-26.509935 23.74003-31.637935 2.034889-1.041106 4.463464-1.42271 7.134696-1.42271 7.429709 0 16.674809 2.966245 24.075319 2.966245 3.220984 0 6.09359-0.566869 8.31475-2.179878 9.193749-6.688651 4.753443-29.4057 12.767138-37.408319 8.036853-8.025777 30.736785-3.584465 37.432484-12.784255 6.660459-9.146426-4.533945-29.377507 0.647419-39.53584 5.122965-10.066707 28.099787-12.835606 31.638942-23.717879 3.468674-10.689961-13.448791-26.43442-11.667634-37.783882 1.733834-11.06049 22.734165-20.809026 22.734165-32.355835C724.433399 451.702961 703.433068 441.926233 701.699234 430.88286zM497.518662 631.975355c-93.047064 0-168.74975-75.695638-168.74975-168.737668s75.701679-168.737668 168.74975-168.737668c93.029948 0 168.714509 75.696644 168.714509 168.737668S590.54861 631.975355 497.518662 631.975355z" /></svg>