<?xml version="1.0" standalone="no"?><!DOCTYPE svg PUBLIC "-//W3C//DTD SVG 1.1//EN" "http://www.w3.org/Graphics/SVG/1.1/DTD/svg11.dtd"><svg class="icon" height="512" viewBox="0 0 1024 1024" version="1.1" xmlns="http://www.w3.org/2000/svg"><path d="M441.58781 402.773333c278.747429 0 473.136762-69.38819 473.136762-154.916571L914.724571 154.916571C914.724571 69.38819 720.335238 0 441.58781 0 162.864762 0 0 69.38819 0 154.916571l0 92.94019C0 333.385143 162.864762 402.773333 441.58781 402.773333zM402.553905 803.718095c-200.508952-7.046095-317.586286-50.41981-379.172571-108.470857C7.655619 710.046476 0 725.820952 0 742.204952l0 125.269333C0 953.904762 170.593524 1024 462.506667 1024c29.232762 0 57.685333-0.853333 85.650286-2.267429C473.136762 970.630095 419.620571 893.318095 402.553905 803.718095zM392.752762 712.289524c0.365714-83.334095 31.134476-159.719619 82.334476-219.306667-6.265905 0-12.239238 0.073143-18.627048 0.073143-234.422857 0-366.592-46.34819-433.298286-110.299429C7.606857 397.726476 0 413.574095 0 430.031238l0 126.098286C0 636.294095 143.798857 702.439619 392.752762 712.289524zM731.599238 439.222857c-161.54819 0-292.449524 130.852571-292.449524 292.376381 0 161.499429 130.901333 292.376381 292.449524 292.376381C893.049905 1023.975619 1024 893.098667 1024 731.599238 1024 570.075429 893.049905 439.222857 731.599238 439.222857zM731.452952 877.738667c-156.94019 0-219.452952-146.285714-219.452952-146.285714s63.439238-146.285714 219.452952-146.285714c147.72419 0 219.477333 146.285714 219.477333 146.285714S878.226286 877.738667 731.452952 877.738667zM731.452952 621.884952c-60.708571 0-109.909333 49.078857-109.909333 109.568 0 60.513524 49.200762 109.568 109.909333 109.568s109.909333-49.054476 109.909333-109.568C841.362286 670.96381 792.161524 621.884952 731.452952 621.884952zM731.452952 804.864c-40.594286 0-73.557333-32.841143-73.557333-73.411048 0-9.703619 1.974857-18.944 5.436952-27.477333l68.120381 27.477333-20.21181-70.509714c6.436571-1.852952 13.165714-2.901333 20.21181-2.901333 40.594286 0 73.508571 32.865524 73.508571 73.411048C804.961524 772.022857 772.047238 804.864 731.452952 804.864z" /></svg>