<?xml version="1.0" standalone="no"?><!DOCTYPE svg PUBLIC "-//W3C//DTD SVG 1.1//EN" "http://www.w3.org/Graphics/SVG/1.1/DTD/svg11.dtd"><svg class="icon" height="512" viewBox="0 0 1024 1024" version="1.1" xmlns="http://www.w3.org/2000/svg"><path d="M342.5 154.4c-92.1 37.5-180.9 39.2-181.8 39.2l-23 0.4v377.7c0 84.5 50.4 181.3 138.4 265.7C353.8 911.9 447.9 962 510.3 962c130.7 0 376-206.8 376-390.3l-0.2-377.7-23.1-0.4c-0.8 0-92.9-1.7-184.9-39.2-93.8-38.4-153.7-82.1-154.2-82.5L510.2 62l-13.9 10.1c-2.5 1.9-62.4 45-153.8 82.3z m167.8-34.2l8.4 5.4c24.1 15.5 74.7 45.5 141.7 72.9 61.3 25 123.4 35.6 164.7 40.1L839 240v331.7c0 163.5-230.7 342.7-328.7 342.7-97 0-325.4-179.3-325.4-342.7V240l13.9-1.5c39.3-4.3 99.2-14.7 161.4-40.1 67.2-27.5 117.6-57.4 141.6-72.9l8.5-5.3zM683.3 398.6L482.8 630.7l-105.6-90.3-30.6 36.1 141.3 120.9 231.2-267.6z" /></svg>