<?xml version="1.0" encoding="utf-8"?>
<!-- Svg Vector Icons : http://www.onlinewebfonts.com/icon -->
<!DOCTYPE svg PUBLIC "-//W3C//DTD SVG 1.1//EN" "http://www.w3.org/Graphics/SVG/1.1/DTD/svg11.dtd">
<svg version="1.1" xmlns="http://www.w3.org/2000/svg" xmlns:xlink="http://www.w3.org/1999/xlink" x="0px" y="0px" viewBox="0 0 1000 1000" enable-background="new 0 0 1000 1000" xml:space="preserve">
<metadata> Svg Vector Icons : http://www.onlinewebfonts.com/icon </metadata>
<g><path d="M505.4,496c-85.3,88.8-82.4,229.8,6.3,315.1c88.8,85.3,229.8,82.4,315.1-6.4c85.3-88.8,82.4-229.8-6.4-315.1C731.7,404.4,590.6,407.3,505.4,496L505.4,496z M769,749.2c-54.6,56.8-144.8,58.6-201.7,4.1c-56.8-54.6-58.6-144.9-4.1-201.7c54.6-56.8,144.9-58.6,201.7-4.1C821.7,602.1,823.5,692.4,769,749.2L769,749.2z M778,827.3l115.6,111.1c22.7,21.8,58.7,21.1,80.5-1.6c21.8-22.7,21.1-58.7-1.6-80.5l-115.6-111L778,827.3L778,827.3z"/><path d="M659,363v49.9c14.8-2.5,30-3.9,45.6-3.9c7.5,0,14.9,0.3,22.2,0.9v-47H659z"/><path d="M788.6,172.6c24.3-23.5,24.3-62.4,0-86.7L766.7,64c-24.3-24.3-63.2-24.3-87.5,0l-41.5,41.1l109,109L788.6,172.6z"/><path d="M248.3,597.5l142.6-34.6L286.4,459.3L248.3,597.5z"/><path d="M416,543.5l304.2-302.8L611.1,131.6L305.8,434.2L416,543.5z"/><path d="M457.9,787.3H94.4c-9.2,0-16.7-7.5-16.7-16.7v-608c0-9.2,7.5-16.7,16.7-16.7h424.3V78.1H94.4C47.9,78.1,10,116,10,162.6v608c0,46.6,37.9,84.4,84.4,84.4h406.4C483.3,834.9,468.8,812,457.9,787.3z"/></g>
</svg>