<?xml version="1.0" standalone="no"?><!DOCTYPE svg PUBLIC "-//W3C//DTD SVG 1.1//EN" "http://www.w3.org/Graphics/SVG/1.1/DTD/svg11.dtd"><svg class="icon" height="512" viewBox="0 0 1024 1024" version="1.1" xmlns="http://www.w3.org/2000/svg"><path d="M512 0C230.4 0 0 230.4 0 512s230.4 512 512 512 512-230.4 512-512S793.6 0 512 0z m0 921.6c-225.28 0-409.6-184.32-409.6-409.6s184.32-409.6 409.6-409.6 409.6 184.32 409.6 409.6-184.32 409.6-409.6 409.6z m-9.8304-261.8368c-15.7696 0-28.672 5.0176-38.7072 15.0528-11.4688 10.0352-16.4864 22.9376-16.4864 38.7072s5.0176 28.672 16.4864 38.7072c10.0352 10.0352 22.9376 15.7696 38.7072 15.7696s28.672-5.0176 40.1408-15.0528c10.0352-10.0352 15.7696-23.6544 15.7696-39.424s-5.7344-28.672-15.7696-38.7072a56.9856 56.9856 0 0 0-40.1408-15.0528z m12.9024-413.5936c-53.0432 0-94.6176 15.0528-125.44 45.1584-31.5392 30.1056-46.592 71.68-46.592 124.7232h81.7152c0-30.8224 5.7344-54.4768 17.92-70.9632 14.336-19.3536 36.5568-28.672 67.3792-28.672 24.3712 0 43.7248 6.4512 57.344 20.0704 12.9024 13.6192 20.0704 32.256 20.0704 55.9104 0 17.92-6.4512 35.1232-19.3536 50.8928l-8.6016 10.0352c-46.592 41.5744-74.5472 71.68-83.8656 91.0336-10.0352 19.3536-14.336 43.008-14.336 70.2464v10.0352h82.432v-10.0352c0-17.2032 3.584-32.9728 10.752-47.3088 6.4512-12.9024 15.7696-25.088 28.672-35.1232 34.4064-30.1056 55.1936-49.4592 61.6448-56.6272 17.2032-22.9376 26.5216-52.3264 26.5216-88.1664 0-43.7248-14.336-78.1312-43.008-103.2192-28.672-25.8048-66.6624-37.9904-113.2544-37.9904z" /></svg>