<?xml version="1.0" standalone="no"?><!DOCTYPE svg PUBLIC "-//W3C//DTD SVG 1.1//EN" "http://www.w3.org/Graphics/SVG/1.1/DTD/svg11.dtd"><svg class="icon" height="512" viewBox="0 0 1024 1024" version="1.1" xmlns="http://www.w3.org/2000/svg"><path d="M513.366 387.548c-41.25 0-74.686 33.435-74.686 74.685v298.636c0 41.215 33.435 74.65 74.686 74.65 41.232 0 74.65-33.436 74.65-74.65V462.233c0.001-41.251-33.417-74.685-74.65-74.685z m0-373.286C238.457 14.262 15.628 237.091 15.628 512c0 274.874 222.829 497.738 497.738 497.738 274.874 0 497.738-222.864 497.738-497.738 0-274.909-222.864-497.738-497.738-497.738z m0 920.791C279.708 935.053 90.278 745.658 90.278 512c0-233.676 189.429-423.088 423.088-423.088 233.658 0 423.07 189.43 423.07 423.088 0.001 233.658-189.412 423.053-423.07 423.053z m0-746.608c-41.25 0-74.686 33.435-74.686 74.686 0 41.215 33.435 74.65 74.686 74.65 41.232 0 74.65-33.435 74.65-74.65 0.001-41.251-33.417-74.686-74.65-74.686z" /></svg>