<?xml version="1.0" standalone="no"?><!DOCTYPE svg PUBLIC "-//W3C//DTD SVG 1.1//EN" "http://www.w3.org/Graphics/SVG/1.1/DTD/svg11.dtd"><svg class="icon" height="512" viewBox="0 0 1024 1024" version="1.1" xmlns="http://www.w3.org/2000/svg"><path d="M802.159 705.433c-19.25 0-36.625 6.392-51.484 16.307L599.109 610.998c6.065-15.799 9.617-32.71 9.617-50.642 0-29.692-9.281-57.196-24.61-80.123L760.773 307.63c12.571 6.486 26.22 10.938 41.385 10.938 53.457 0 96.72-43.259 96.72-96.716 0-53.46-43.263-96.72-96.72-96.72-53.458 0-96.712 43.26-96.712 96.715 0 15.027 4.376 28.568 10.766 41.045L538.561 436.471c-21.912-13.396-47.391-21.188-74.908-21.188-53.823 0-100.258 29.789-125.271 73.469L218.878 450.06c-5.842-19.984-23.488-34.776-45.396-34.776-26.733 0-48.36 21.63-48.36 48.36 0 26.727 21.627 48.355 48.36 48.355 10.681 0 20.327-3.759 28.267-9.693l118.719 38.441c-0.991 6.444-1.887 12.915-1.887 19.608 0 80.095 64.978 145.077 145.072 145.077 39.339 0 75.081-15.751 101.245-41.232l146.314 106.901c-3.477 9.786-5.765 20.111-5.765 31.048 0 53.366 43.255 96.717 96.712 96.717s96.712-43.351 96.712-96.717-43.255-96.716-96.712-96.716z" fill="#040000" /></svg>