<?xml version="1.0" standalone="no"?><!DOCTYPE svg PUBLIC "-//W3C//DTD SVG 1.1//EN" "http://www.w3.org/Graphics/SVG/1.1/DTD/svg11.dtd"><svg class="icon" height="512" viewBox="0 0 1024 1024" version="1.1" xmlns="http://www.w3.org/2000/svg"><path d="M939.19800889 587.75665778h-3.88437334L661.51879111 141.14133334c15.53521778-13.59303111 27.18606222-34.95253333 27.18606222-58.25422222 0-42.72014222-34.95253333-77.67267555-77.67267555-77.67267556s-77.67267555 34.95253333-77.67267556 77.67267556c0 3.88323555 0 9.70865778 1.94218667 13.5930311L226.55431111 211.0464c-13.59303111-19.41845333-36.89472-31.06929778-62.13745778-31.06929778-42.72014222 0-77.67267555 34.95253333-77.67267555 77.67267556 0 34.95253333 23.30168889 64.07964445 54.37098667 73.78830222l-69.90506667 297.09653334c-34.95253333 7.76760889-62.13859555 38.83690667-62.13859556 75.73048888 0 42.72014222 34.95253333 77.67267555 77.67267556 77.67267556 23.30168889 0 44.66119111-9.70865778 60.19640889-27.18492444L436.26951111 915.92248889v1.94218667c0 42.71900445 34.95253333 77.67153778 77.67267556 77.67153778s77.67153778-34.95253333 77.67153778-77.67153778v-11.65084444L896.47786667 727.56679112c13.59303111 9.70979555 29.12711111 15.53521778 46.60337778 15.53521777 42.72014222 0 77.67267555-34.95253333 77.67267555-77.67267555-3.88437333-42.72014222-38.83690667-77.67267555-81.55591111-77.67267556zM609.08999111 44.05134222c21.36064 0 38.83690667 17.47626667 38.83690667 38.8357689 0 21.35950222-17.47626667 38.83576889-38.83690667 38.83576888S570.25422222 104.24661334 570.25422222 82.88711112c0-21.35950222 17.47626667-38.83576889 38.83576889-38.8357689z m-60.19527111 401.95413334l-145.63555555-83.49809778 176.70371555-207.77301333c1.94218667 0 3.88437333 1.94104889 7.76760889 1.94104889l-38.83576889 289.33006222z m33.01034667 56.31203556l256.31857778 145.63555555-275.73703112 13.59303111L581.90506667 502.31751112z m-36.89472-21.35950223l-23.30168889 182.52913778-124.27491556 5.82542222-91.26570667-194.17998222 75.7304889-89.32352 163.11182222 95.14894222z m1.94218666-351.46752c1.94218667 3.88323555 5.82542222 5.82542222 7.76760889 9.70865778L376.07310222 346.97329778 238.20515555 267.35843556V257.64977778c0-3.88323555 0-9.70865778-1.94218666-13.59303111L546.95253333 129.49048889z m-320.39822222 170.87943111l128.15928889 71.84611556-64.07964445 73.78944-66.0218311-143.69450667 1.94218666-1.94104889zM123.63889778 257.64977778c0-21.35950222 17.47626667-38.83576889 38.83576889-38.83576889s38.83576889 17.47626667 38.83576888 38.83576889c0 21.35950222-17.47626667 38.83576889-38.83576888 38.83576889s-38.83576889-17.47626667-38.83576889-38.83576889z m-38.83690667 485.45223111c-21.35950222 0-38.83576889-17.47626667-38.83576889-38.83690667 0-21.35950222 17.47626667-38.83576889 38.83576889-38.83576888s38.83690667 17.47626667 38.83690667 38.83576888c0 21.36064-17.47626667 38.83690667-38.83690667 38.83690667z m42.72014222-104.8576c-5.82542222-3.88437333-11.65084445-5.82542222-19.41845333-9.70979555l69.90506667-297.09653334c5.82542222-1.94104889 13.59303111-3.88323555 19.41845333-5.82542222l69.90506667 149.51992889-139.81013334 163.11182222z m21.35950222 21.35950223l132.04366223-153.40316445 77.67153777 166.99619555-198.06435555 9.70865778c-3.88323555-7.76760889-7.76647111-17.47626667-11.65084445-23.30168888z m295.15548445 221.36604444L160.53248 723.68355556v-1.94218667l215.54062222-11.65084444L449.86254222 869.31911112a55577777.49333333 55577777.49333333 0 0 0-5.82542222 11.65084444zM412.96782222 708.14947556l102.91541333-5.82542222-17.47626666 137.86794666c-7.76647111 1.94218667-13.59189333 3.88323555-19.41731556 5.82542222L412.96782222 708.14947556zM512 956.70044445c-21.35950222 0-38.83576889-17.47626667-38.83576889-38.83576889 0-21.36064 17.47626667-38.83690667 38.83576889-38.83690667s38.83576889 17.47626667 38.83576889 38.83690667c0 21.35950222-17.47626667 38.83576889-38.83576889 38.83576889z m64.07964445-81.55591111c-9.70865778-13.59303111-23.30168889-25.24387555-40.77795556-31.06929778l19.41845333-141.75118222 308.74737778-15.53521778 5.82542222 17.47626666L576.07964445 875.14453334z m295.15434666-246.60992l-285.44568889-163.11182222 40.77795556-306.80519112c1.94218667 0 3.88437333 0 3.88437333-1.94218666l269.91047111 440.79104c-11.65084445 5.82542222-23.30168889 17.47626667-29.12711111 31.06816z m67.96401778 75.73048888c-21.36064 0-38.83690667-17.47626667-38.83690667-38.83576888 0-21.35950222 17.47626667-38.83576889 38.83690667-38.83576889S978.03377778 644.06983112 978.03377778 665.42933334c0 21.35950222-17.47626667 38.83576889-38.83576889 38.83576888z" /></svg>