<?xml version="1.0" encoding="iso-8859-1"?>
<!-- Generator: Adobe Illustrator 19.0.0, SVG Export Plug-In . SVG Version: 6.00 Build 0)  -->
<svg version="1.1" id="Layer_1" xmlns="http://www.w3.org/2000/svg" xmlns:xlink="http://www.w3.org/1999/xlink" x="0px" y="0px"
	 viewBox="0 0 510.671 510.671" style="enable-background:new 0 0 510.671 510.671;" xml:space="preserve">
<g>
	<g>
		<path d="M420.546,29.336h-99.02V12.15c0-6.71-5.44-12.15-12.15-12.15H199.75c-6.71,0-12.15,5.439-12.15,12.15v17.187H90.124
			c-6.71,0-12.15,5.439-12.15,12.15v356.615l63.162-63.162c4.746-4.745,12.438-4.745,17.184,0c4.744,4.745,4.744,12.438,0,17.183
			l-80.282,80.282c-0.02,0.02-0.043,0.037-0.063,0.057v61.002l78.197-78.197c4.746-4.745,12.438-4.745,17.184,0
			c4.744,4.745,4.744,12.438,0,17.183l-78.223,78.22h59.371c0.028-0.028,0.051-0.059,0.079-0.087l80.467-80.466
			c4.746-4.744,12.438-4.745,17.184,0c4.744,4.745,4.744,12.438,0,17.183l-63.371,63.371h231.684c6.71,0,12.15-5.439,12.15-12.15
			V41.486C432.696,34.776,427.256,29.336,420.546,29.336z M211.901,24.3h85.325v17.169l-0.023,16.716h-85.3V41.486
			c0-0.013-0.002-0.026-0.002-0.039V24.3z M374.997,260.537H135.673c-6.71,0-12.15-5.439-12.15-12.15s5.44-12.15,12.15-12.15
			h239.324c6.71,0,12.15,5.439,12.15,12.15S381.707,260.537,374.997,260.537z M374.997,201.091H135.673
			c-6.71,0-12.15-5.439-12.15-12.15s5.44-12.15,12.15-12.15h239.324c6.71,0,12.15,5.439,12.15,12.15
			S381.707,201.091,374.997,201.091z M374.997,141.646H135.673c-6.71,0-12.15-5.439-12.15-12.15s5.44-12.15,12.15-12.15h239.324
			c6.71,0,12.15,5.439,12.15,12.15S381.707,141.646,374.997,141.646z"/>
	</g>
</g>
<g>
</g>
<g>
</g>
<g>
</g>
<g>
</g>
<g>
</g>
<g>
</g>
<g>
</g>
<g>
</g>
<g>
</g>
<g>
</g>
<g>
</g>
<g>
</g>
<g>
</g>
<g>
</g>
<g>
</g>
</svg>
