<?xml version="1.0" ?><svg enable-background="new 0 0 32 32" height="32px" id="svg2" version="1.1" viewBox="0 0 32 32" width="32px" xml:space="preserve" xmlns="http://www.w3.org/2000/svg" xmlns:cc="http://creativecommons.org/ns#" xmlns:dc="http://purl.org/dc/elements/1.1/" xmlns:inkscape="http://www.inkscape.org/namespaces/inkscape" xmlns:rdf="http://www.w3.org/1999/02/22-rdf-syntax-ns#" xmlns:sodipodi="http://sodipodi.sourceforge.net/DTD/sodipodi-0.dtd" xmlns:svg="http://www.w3.org/2000/svg"><g id="background"><rect fill="none" height="32" width="32"/></g><g id="ontology"><path d="M22,22v2.001L19.816,24c-0.302-0.85-0.969-1.517-1.818-1.817L17.999,20H20v-8h-8v2H9.817   C9.516,13.151,8.849,12.485,8,12.184V10h2V2H2v8h4v2.184C4.837,12.597,4,13.695,4,15C4,16.304,4.837,17.402,6,17.816V26h8.185   c0.413,1.163,1.512,2,2.816,2c1.306,0,2.404-0.838,2.816-2.001H22V30h8v-8H22z M8,17.816c0.849-0.302,1.516-0.969,1.817-1.818H12   V20h3.999v2.184c-0.848,0.302-1.513,0.968-1.815,1.815L8,23.998V17.816z"/></g></svg>