<?xml version="1.0" encoding="UTF-8" standalone="no"?>
<!-- Created with Inkscape (http://www.inkscape.org/) -->

<svg
   xmlns:dc="http://purl.org/dc/elements/1.1/"
   xmlns:cc="http://creativecommons.org/ns#"
   xmlns:rdf="http://www.w3.org/1999/02/22-rdf-syntax-ns#"
   xmlns:svg="http://www.w3.org/2000/svg"
   xmlns="http://www.w3.org/2000/svg"
   xmlns:sodipodi="http://sodipodi.sourceforge.net/DTD/sodipodi-0.dtd"
   xmlns:inkscape="http://www.inkscape.org/namespaces/inkscape"
   width="210mm"
   height="297mm"
   viewBox="0 0 210 297"
   version="1.1"
   id="svg5307"
   inkscape:version="0.92.0 r15299"
   sodipodi:docname="ontology.svg">
  <defs
     id="defs5301" />
  <sodipodi:namedview
     id="base"
     pagecolor="#ffffff"
     bordercolor="#666666"
     borderopacity="1.0"
     inkscape:pageopacity="0.0"
     inkscape:pageshadow="2"
     inkscape:zoom="1.4"
     inkscape:cx="545.73214"
     inkscape:cy="775.65317"
     inkscape:document-units="mm"
     inkscape:current-layer="layer1"
     showgrid="false"
     inkscape:snap-object-midpoints="true"
     showguides="true"
     inkscape:guide-bbox="true"
     inkscape:window-width="2560"
     inkscape:window-height="1361"
     inkscape:window-x="-9"
     inkscape:window-y="-9"
     inkscape:window-maximized="1">
    <sodipodi:guide
       position="60.670181,227.1791"
       orientation="0,1"
       id="guide5929"
       inkscape:locked="false" />
    <sodipodi:guide
       position="70.965028,221.32869"
       orientation="1,0"
       id="guide5931"
       inkscape:locked="false" />
    <sodipodi:guide
       position="88.800779,179.70406"
       orientation="0,1"
       id="guide5933"
       inkscape:locked="false" />
    <sodipodi:guide
       position="117.99949,201.7885"
       orientation="1,0"
       id="guide5935"
       inkscape:locked="false" />
    <sodipodi:guide
       position="165.03893,148.25107"
       orientation="1,0"
       id="guide5937"
       inkscape:locked="false" />
    <sodipodi:guide
       position="152.57749,132.09797"
       orientation="0,1"
       id="guide5939"
       inkscape:locked="false" />
  </sodipodi:namedview>
  <metadata
     id="metadata5304">
    <rdf:RDF>
      <cc:Work
         rdf:about="">
        <dc:format>image/svg+xml</dc:format>
        <dc:type
           rdf:resource="http://purl.org/dc/dcmitype/StillImage" />
        <dc:title></dc:title>
      </cc:Work>
    </rdf:RDF>
  </metadata>
  <g
     inkscape:label="Layer 1"
     inkscape:groupmode="layer"
     id="layer1">
    <path
       style="fill:#000000;fill-opacity:1;stroke:none;stroke-width:7.55899954;stroke-linecap:round;stroke-linejoin:round;stroke-miterlimit:4;stroke-dasharray:none;stroke-opacity:1"
       d="M 199 194.18945 L 199 332.58008 L 337.39062 332.58008 L 337.39062 194.18945 L 199 194.18945 z M 218.19336 213.38281 L 318.19727 213.38281 L 318.19727 313.38672 L 218.19336 313.38672 L 218.19336 213.38281 z "
       transform="scale(0.26458333)"
       id="rect5854" />
    <path
       inkscape:connector-curvature="0"
       style="fill:#000000;fill-opacity:1;stroke:none;stroke-width:1.99998534;stroke-linecap:round;stroke-linejoin:round;stroke-miterlimit:4;stroke-dasharray:none;stroke-opacity:1"
       d="M 99.687851,98.991035 V 135.60688 H 136.3037 V 98.991035 Z m 5.078249,5.078245 h 26.45936 v 26.45936 H 104.7661 Z"
       id="rect5854-2" />
    <path
       inkscape:connector-curvature="0"
       style="fill:#000000;fill-opacity:1;stroke:none;stroke-width:1.99998534;stroke-linecap:round;stroke-linejoin:round;stroke-miterlimit:4;stroke-dasharray:none;stroke-opacity:1"
       d="m 146.7236,146.60277 v 36.61586 h 36.61586 v -36.61586 z m 5.07825,5.07824 h 26.45936 v 26.45937 h -26.45936 z"
       id="rect5854-4" />
    <path
       style="fill:#000000;fill-opacity:1;stroke:none;stroke-width:7.55899954;stroke-linecap:round;stroke-linejoin:round;stroke-miterlimit:4;stroke-dasharray:none;stroke-opacity:1"
       d="M 268.21484 400.39258 A 42.931485 42.931485 0 0 0 225.2832 443.32227 A 42.931485 42.931485 0 0 0 268.21484 486.25391 A 42.931485 42.931485 0 0 0 311.14648 443.32227 A 42.931485 42.931485 0 0 0 268.21484 400.39258 z M 268.21484 417.17773 A 26.145769 26.145769 0 0 1 294.35938 443.32227 A 26.145769 26.145769 0 0 1 268.21484 469.46875 A 26.145769 26.145769 0 0 1 242.06836 443.32227 A 26.145769 26.145769 0 0 1 268.21484 417.17773 z "
       transform="scale(0.26458333)"
       id="path5925" />
    <path
       style="fill:#000000;fill-opacity:1;stroke:none;stroke-width:7.55900002;stroke-linecap:round;stroke-linejoin:round;stroke-miterlimit:4;stroke-dasharray:none;stroke-opacity:1"
       d="M 445.98242 580.32031 A 42.931485 42.931485 0 0 0 403.05078 623.25195 A 42.931485 42.931485 0 0 0 445.98242 666.18359 A 42.931485 42.931485 0 0 0 488.91406 623.25195 A 42.931485 42.931485 0 0 0 445.98242 580.32031 z M 445.98242 597.10547 A 26.145769 26.145769 0 0 1 472.12891 623.25195 A 26.145769 26.145769 0 0 1 445.98242 649.39844 A 26.145769 26.145769 0 0 1 419.83594 623.25195 A 26.145769 26.145769 0 0 1 445.98242 597.10547 z "
       transform="scale(0.26458333)"
       id="path5925-2" />
    <rect
       style="fill:#000000;fill-opacity:1;stroke:none;stroke-width:1.99998534;stroke-linecap:round;stroke-linejoin:round;stroke-miterlimit:4;stroke-dasharray:none;stroke-opacity:1"
       id="rect5956"
       width="6.9490075"
       height="21.818825"
       x="67.490524"
       y="86.658882" />
    <rect
       style="fill:#000000;fill-opacity:1;stroke:none;stroke-width:1.99998546;stroke-linecap:round;stroke-linejoin:round;stroke-miterlimit:4;stroke-dasharray:none;stroke-opacity:1"
       id="rect5956-8"
       width="6.9490075"
       height="23.519718"
       x="114.52499"
       y="133.43105" />
    <rect
       style="fill:#000000;fill-opacity:1;stroke:none;stroke-width:1.99998558;stroke-linecap:round;stroke-linejoin:round;stroke-miterlimit:4;stroke-dasharray:none;stroke-opacity:1"
       id="rect5956-4"
       width="6.949007"
       height="21.252504"
       x="113.72601"
       y="-100.66248"
       transform="matrix(-8.6578849e-4,0.99999963,-0.99999944,-0.00106037,0,0)" />
    <rect
       style="fill:#000000;fill-opacity:1;stroke:none;stroke-width:1.99998546;stroke-linecap:round;stroke-linejoin:round;stroke-miterlimit:4;stroke-dasharray:none;stroke-opacity:1"
       id="rect5956-4-9"
       width="6.9490075"
       height="23.519718"
       x="161.29544"
       y="-149.69011"
       transform="rotate(90.054898)" />
    <rect
       style="fill:#000000;fill-opacity:1;stroke:none;stroke-width:1.99998546;stroke-linecap:round;stroke-linejoin:round;stroke-miterlimit:4;stroke-dasharray:none;stroke-opacity:1"
       id="rect5956-6"
       width="6.9490075"
       height="40.229469"
       x="67.490524"
       y="124.67258" />
    <rect
       style="fill:#000000;fill-opacity:1;stroke:none;stroke-width:1.99998605;stroke-linecap:round;stroke-linejoin:round;stroke-miterlimit:4;stroke-dasharray:none;stroke-opacity:1"
       id="rect5956-4-9-5"
       width="6.9490137"
       height="40.712765"
       x="161.37895"
       y="-108.51514"
       transform="matrix(-0.00165856,0.99999862,-0.99999985,-5.5352261e-4,0,0)" />
  </g>
</svg>
