<?xml version="1.0" encoding="utf-8"?>
<!-- Generator: Adobe Illustrator 15.0.0, SVG Export Plug-In . SVG Version: 6.00 Build 0)  -->
<!DOCTYPE svg PUBLIC "-//W3C//DTD SVG 1.1//EN" "http://www.w3.org/Graphics/SVG/1.1/DTD/svg11.dtd">
<svg xmlns="http://www.w3.org/2000/svg" xmlns:xlink="http://www.w3.org/1999/xlink" version="1.1" id="Layer_1" x="0px" y="0px" width="208px" height="208px" viewBox="0 0 26 26" enable-background="new 0 0 26 26" xml:space="preserve">

<g>
	<path fill="#000000" d="M13,8.07c-2.718,0-4.93,2.212-4.93,4.93s2.212,4.93,4.93,4.93s4.93-2.212,4.93-4.93S15.718,8.07,13,8.07z    M12.977,15.078c-1.146,0-2.078-0.931-2.078-2.077c0-1.147,0.932-2.077,2.078-2.077s2.076,0.93,2.076,2.077   C15.053,14.147,14.123,15.078,12.977,15.078z"/>
	<path fill="#000000" d="M25.035,14.481v-3.009l-3.581-0.585c-0.212-0.849-0.545-1.646-0.983-2.376l2.087-2.975L20.43,3.41   l-2.937,2.111c-0.732-0.443-1.534-0.781-2.389-0.994L14.48,0.964h-3.009l-0.58,3.552C10.037,4.726,9.23,5.059,8.496,5.5   L5.568,3.408L3.44,5.535L5.5,8.48c-0.445,0.737-0.784,1.543-0.999,2.403l-3.536,0.589v3.009l3.532,0.626   c0.213,0.858,0.552,1.664,0.999,2.402l-2.088,2.92l2.127,2.129l2.949-2.065c0.736,0.442,1.541,0.778,2.396,0.989l0.592,3.554h3.009   l0.632-3.563c0.851-0.215,1.653-0.554,2.383-0.998l2.97,2.084l2.127-2.129l-2.119-2.943c0.438-0.73,0.771-1.528,0.981-2.377   L25.035,14.481z M13,19.525c-3.604,0-6.525-2.922-6.525-6.525S9.396,6.475,13,6.475S19.525,9.396,19.525,13   S16.604,19.525,13,19.525z"/>
</g>
</svg>
